<?xml version="1.0" encoding="UTF-8" standalone="no"?>
<!-- Created with Inkscape (http://www.inkscape.org/) -->

<svg
   xmlns:dc="http://purl.org/dc/elements/1.1/"
   xmlns:cc="http://creativecommons.org/ns#"
   xmlns:rdf="http://www.w3.org/1999/02/22-rdf-syntax-ns#"
   xmlns:svg="http://www.w3.org/2000/svg"
   xmlns="http://www.w3.org/2000/svg"
   xmlns:xlink="http://www.w3.org/1999/xlink"
   xmlns:sodipodi="http://sodipodi.sourceforge.net/DTD/sodipodi-0.dtd"
   xmlns:inkscape="http://www.inkscape.org/namespaces/inkscape"
   width="744.09448819"
   height="1052.3622047"
   id="svg2"
   version="1.1"
   inkscape:version="0.48.2 r9819"
   sodipodi:docname="overallDesign.svg"
   inkscape:export-filename="/Users/jimhigson/Sites/progressivejson/writing/images/rest_timeline.png"
   inkscape:export-xdpi="599.89062"
   inkscape:export-ydpi="599.89062">
  <defs
     id="defs4">
    <marker
       inkscape:stockid="Arrow1Mend"
       orient="auto"
       refY="0.0"
       refX="0.0"
       id="Arrow1Mend"
       style="overflow:visible;">
      <path
         id="path4115"
         d="M 0.0,0.0 L 5.0,-5.0 L -12.5,0.0 L 5.0,5.0 L 0.0,0.0 z "
         style="fill-rule:evenodd;stroke:#000000;stroke-width:1.0pt;marker-start:none;"
         transform="scale(0.4) rotate(180) translate(10,0)" />
    </marker>
    <marker
       inkscape:stockid="Arrow1Mstart"
       orient="auto"
       refY="0.0"
       refX="0.0"
       id="Arrow1Mstart"
       style="overflow:visible">
      <path
         id="path4112"
         d="M 0.0,0.0 L 5.0,-5.0 L -12.5,0.0 L 5.0,5.0 L 0.0,0.0 z "
         style="fill-rule:evenodd;stroke:#000000;stroke-width:1.0pt;marker-start:none"
         transform="scale(0.4) translate(10,0)" />
    </marker>
    <marker
       inkscape:stockid="Arrow2Send"
       orient="auto"
       refY="0.0"
       refX="0.0"
       id="Arrow2Send"
       style="overflow:visible;">
      <path
         id="path4139"
         style="font-size:12.0;fill-rule:evenodd;stroke-width:0.62500000;stroke-linejoin:round;"
         d="M 8.7185878,4.0337352 L -2.2072895,0.016013256 L 8.7185884,-4.0017078 C 6.9730900,-1.6296469 6.9831476,1.6157441 8.7185878,4.0337352 z "
         transform="scale(0.3) rotate(180) translate(-2.3,0)" />
    </marker>
    <marker
       inkscape:stockid="Arrow2Mend"
       orient="auto"
       refY="0.0"
       refX="0.0"
       id="Arrow2Mend"
       style="overflow:visible;">
      <path
         id="path4133"
         style="font-size:12.0;fill-rule:evenodd;stroke-width:0.62500000;stroke-linejoin:round;"
         d="M 8.7185878,4.0337352 L -2.2072895,0.016013256 L 8.7185884,-4.0017078 C 6.9730900,-1.6296469 6.9831476,1.6157441 8.7185878,4.0337352 z "
         transform="scale(0.6) rotate(180) translate(0,0)" />
    </marker>
    <marker
       inkscape:stockid="Torso"
       orient="auto"
       refY="0.0"
       refX="0.0"
       id="Torso"
       style="overflow:visible">
      <g
         id="g4319"
         transform="scale(0.7)">
        <path
           id="path4321"
           d="M -4.7792281,-3.2395420 C -2.4288541,-2.8736027 0.52103922,-1.3019943 0.25792722,0.38794346 C -0.0051877922,2.0778819 -2.2126741,2.6176539 -4.5630471,2.2517169 C -6.9134221,1.8857769 -8.5210350,0.75201414 -8.2579220,-0.93792336 C -7.9948090,-2.6278615 -7.1296041,-3.6054813 -4.7792281,-3.2395420 z "
           style="fill:none;fill-opacity:0.75000000;fill-rule:evenodd;stroke:#000000;stroke-width:1.2500000;marker-start:none;marker-mid:none;marker-end:none" />
        <path
           id="path4323"
           d="M 4.4598789,0.088665736 C -2.5564571,-4.3783320 5.2248769,-3.9061806 -0.84829578,-8.7197331"
           style="fill:none;fill-opacity:0.75000000;fill-rule:evenodd;stroke:#000000;stroke-width:1.0000000pt;marker-end:none" />
        <path
           id="path4325"
           d="M 4.9298719,0.057520736 C -1.3872731,1.7494689 1.8027579,5.4782079 -4.9448731,7.5462725"
           style="fill:none;fill-opacity:0.75000000;fill-rule:evenodd;stroke:#000000;stroke-width:1.0000000pt;marker-start:none;marker-end:none" />
        <rect
           id="rect4327"
           transform="matrix(0.527536,-0.849533,0.887668,0.460484,0,0)"
           y="-1.7408575"
           x="-10.391706"
           height="2.7608147"
           width="2.6366582"
           style="fill-rule:evenodd;stroke-width:1.0000000pt;marker-end:none" />
        <rect
           id="rect4329"
           transform="matrix(0.671205,-0.741272,0.790802,0.612072,0,0)"
           y="-7.9629307"
           x="4.9587269"
           height="2.8614161"
           width="2.7327356"
           style="fill-rule:evenodd;stroke-width:1.0000000pt;marker-end:none" />
        <path
           id="path4331"
           transform="matrix(0,-1.109517,1.109517,0,25.96648,19.71619)"
           d="m 16.779951,-28.685045 c 0,0.335412 -0.271905,0.607317 -0.607317,0.607317 -0.335412,0 -0.607317,-0.271905 -0.607317,-0.607317 0,-0.335412 0.271905,-0.607318 0.607317,-0.607318 0.335412,0 0.607317,0.271906 0.607317,0.607318 z"
           sodipodi:ry="0.60731727"
           sodipodi:rx="0.60731727"
           sodipodi:cy="-28.685045"
           sodipodi:cx="16.172634"
           style="fill:#ff0000;fill-opacity:0.75000000;fill-rule:evenodd;stroke:#000000;stroke-width:1.0000000pt;marker-start:none;marker-end:none"
           sodipodi:type="arc" />
        <path
           id="path4333"
           transform="matrix(0,-1.109517,1.109517,0,26.82450,16.99126)"
           d="m 16.779951,-28.685045 c 0,0.335412 -0.271905,0.607317 -0.607317,0.607317 -0.335412,0 -0.607317,-0.271905 -0.607317,-0.607317 0,-0.335412 0.271905,-0.607318 0.607317,-0.607318 0.335412,0 0.607317,0.271906 0.607317,0.607318 z"
           sodipodi:ry="0.60731727"
           sodipodi:rx="0.60731727"
           sodipodi:cy="-28.685045"
           sodipodi:cx="16.172634"
           style="fill:#ff0000;fill-opacity:0.75000000;fill-rule:evenodd;stroke:#000000;stroke-width:1.0000000pt;marker-start:none;marker-end:none"
           sodipodi:type="arc" />
      </g>
    </marker>
    <marker
       inkscape:stockid="Arrow2Lend"
       orient="auto"
       refY="0.0"
       refX="0.0"
       id="Arrow2Lend"
       style="overflow:visible;">
      <path
         id="path4127"
         style="font-size:12.0;fill-rule:evenodd;stroke-width:0.62500000;stroke-linejoin:round;"
         d="M 8.7185878,4.0337352 L -2.2072895,0.016013256 L 8.7185884,-4.0017078 C 6.9730900,-1.6296469 6.9831476,1.6157441 8.7185878,4.0337352 z "
         transform="scale(1.1) rotate(180) translate(1,0)" />
    </marker>
    <marker
       inkscape:stockid="Arrow1Lend"
       orient="auto"
       refY="0.0"
       refX="0.0"
       id="Arrow1Lend"
       style="overflow:visible;">
      <path
         id="path4109"
         d="M 0.0,0.0 L 5.0,-5.0 L -12.5,0.0 L 5.0,5.0 L 0.0,0.0 z "
         style="fill-rule:evenodd;stroke:#000000;stroke-width:1.0pt;marker-start:none;"
         transform="scale(0.8) rotate(180) translate(12.5,0)" />
    </marker>
    <marker
       inkscape:stockid="Arrow2Lend"
       orient="auto"
       refY="0"
       refX="0"
       id="Arrow2Lend-6"
       style="overflow:visible">
      <path
         inkscape:connector-curvature="0"
         id="path4127-7"
         style="font-size:12px;fill-rule:evenodd;stroke-width:0.625;stroke-linejoin:round"
         d="M 8.7185878,4.0337352 -2.2072895,0.01601326 8.7185884,-4.0017078 c -1.7454984,2.3720609 -1.7354408,5.6174519 -6e-7,8.035443 z"
         transform="matrix(-1.1,0,0,-1.1,-1.1,0)" />
    </marker>
    <marker
       inkscape:stockid="Arrow2Lend"
       orient="auto"
       refY="0"
       refX="0"
       id="Arrow2Lend-9"
       style="overflow:visible">
      <path
         inkscape:connector-curvature="0"
         id="path4127-1"
         style="font-size:12px;fill-rule:evenodd;stroke-width:0.625;stroke-linejoin:round"
         d="M 8.7185878,4.0337352 -2.2072895,0.01601326 8.7185884,-4.0017078 c -1.7454984,2.3720609 -1.7354408,5.6174519 -6e-7,8.035443 z"
         transform="matrix(-1.1,0,0,-1.1,-1.1,0)" />
    </marker>
    <marker
       inkscape:stockid="Arrow2Lend"
       orient="auto"
       refY="0"
       refX="0"
       id="Arrow2Lend-1"
       style="overflow:visible">
      <path
         inkscape:connector-curvature="0"
         id="path4127-3"
         style="font-size:12px;fill-rule:evenodd;stroke-width:0.625;stroke-linejoin:round"
         d="M 8.7185878,4.0337352 -2.2072895,0.01601326 8.7185884,-4.0017078 c -1.7454984,2.3720609 -1.7354408,5.6174519 -6e-7,8.035443 z"
         transform="matrix(-1.1,0,0,-1.1,-1.1,0)" />
    </marker>
    <marker
       inkscape:stockid="Arrow2Lend"
       orient="auto"
       refY="0"
       refX="0"
       id="Arrow2Lend-7"
       style="overflow:visible">
      <path
         inkscape:connector-curvature="0"
         id="path4127-2"
         style="font-size:12px;fill-rule:evenodd;stroke-width:0.625;stroke-linejoin:round"
         d="M 8.7185878,4.0337352 -2.2072895,0.01601326 8.7185884,-4.0017078 c -1.7454984,2.3720609 -1.7354408,5.6174519 -6e-7,8.035443 z"
         transform="matrix(-1.1,0,0,-1.1,-1.1,0)" />
    </marker>
  </defs>
  <sodipodi:namedview
     id="base"
     pagecolor="#ffffff"
     bordercolor="#666666"
     borderopacity="1.0"
     inkscape:pageopacity="0.0"
     inkscape:pageshadow="2"
     inkscape:zoom="1.979899"
     inkscape:cx="236.63135"
     inkscape:cy="616.12095"
     inkscape:document-units="px"
     inkscape:current-layer="layer1"
     showgrid="true"
     inkscape:snap-global="true"
     inkscape:window-width="1920"
     inkscape:window-height="1152"
     inkscape:window-x="0"
     inkscape:window-y="0"
     inkscape:window-maximized="1">
    <inkscape:grid
       type="xygrid"
       id="grid2985"
       empspacing="5"
       visible="true"
       enabled="true"
       snapvisiblegridlinesonly="true"
       color="#0000ff"
       opacity="0.05098039"
       empcolor="#000bc0"
       empopacity="0.05098039" />
  </sodipodi:namedview>
  <metadata
     id="metadata7">
    <rdf:RDF>
      <cc:Work
         rdf:about="">
        <dc:format>image/svg+xml</dc:format>
        <dc:type
           rdf:resource="http://purl.org/dc/dcmitype/StillImage" />
        <dc:title></dc:title>
      </cc:Work>
    </rdf:RDF>
  </metadata>
  <g
     inkscape:label="Layer 1"
     inkscape:groupmode="layer"
     id="layer1">
    <g
       transform="translate(-65.244141,107.24121)"
       id="g4452">
      <path
         sodipodi:type="arc"
         style="color:#000000;fill:none;stroke:#000000;stroke-width:0.77459663;stroke-linecap:butt;stroke-linejoin:miter;stroke-miterlimit:4;stroke-opacity:1;stroke-dasharray:none;stroke-dashoffset:0;marker:none;visibility:visible;display:inline;overflow:visible;enable-background:accumulate"
         id="path4454"
         sodipodi:cx="247.5"
         sodipodi:cy="477.36218"
         sodipodi:rx="22.5"
         sodipodi:ry="20"
         d="m 270,477.36218 c 0,11.0457 -10.07359,20 -22.5,20 -12.42641,0 -22.5,-8.9543 -22.5,-20 0,-11.04569 10.07359,-20 22.5,-20 12.42641,0 22.5,8.95431 22.5,20 z"
         transform="matrix(1.6666667,0,0,1,-202.5,-15)" />
      <text
         xml:space="preserve"
         style="font-size:10px;font-style:normal;font-weight:normal;text-align:center;line-height:125%;letter-spacing:0px;word-spacing:0px;text-anchor:middle;fill:#000000;fill-opacity:1;stroke:none;font-family:Sans"
         x="210.24414"
         y="465.12097"
         id="text4456"
         sodipodi:linespacing="125%"><tspan
           sodipodi:role="line"
           id="tspan4458"
           x="210.24414"
           y="465.12097">browserAPI</tspan></text>
    </g>
    <g
       id="g4460"
       transform="translate(-145.00001,55)">
      <path
         transform="matrix(1.5555556,0,0,1,-175,-15)"
         d="m 270,477.36218 c 0,11.0457 -10.07359,20 -22.5,20 -12.42641,0 -22.5,-8.9543 -22.5,-20 0,-11.04569 10.07359,-20 22.5,-20 12.42641,0 22.5,8.95431 22.5,20 z"
         sodipodi:ry="20"
         sodipodi:rx="22.5"
         sodipodi:cy="477.36218"
         sodipodi:cx="247.5"
         id="path4462"
         style="color:#000000;fill:none;stroke:#000000;stroke-width:0.80178368;stroke-linecap:butt;stroke-linejoin:miter;stroke-miterlimit:4;stroke-opacity:1;stroke-dasharray:none;stroke-dashoffset:0;marker:none;visibility:visible;display:inline;overflow:visible;enable-background:accumulate"
         sodipodi:type="arc" />
      <text
         sodipodi:linespacing="125%"
         id="text4464"
         y="465.12097"
         x="210.24414"
         style="font-size:10px;font-style:normal;font-weight:normal;text-align:center;line-height:125%;letter-spacing:0px;word-spacing:0px;text-anchor:middle;fill:#000000;fill-opacity:1;stroke:none;font-family:Sans"
         xml:space="preserve"><tspan
           y="465.12097"
           x="210.24414"
           id="tspan4466"
           sodipodi:role="line">application</tspan></text>
    </g>
    <g
       id="g4548"
       transform="translate(-70,-53.75)">
      <path
         sodipodi:type="arc"
         style="color:#000000;fill:none;stroke:#000000;stroke-width:0.86957085;stroke-linecap:butt;stroke-linejoin:miter;stroke-miterlimit:4;stroke-opacity:1;stroke-dasharray:none;stroke-dashoffset:0;marker:none;visibility:visible;display:inline;overflow:visible;enable-background:accumulate"
         id="path4470"
         sodipodi:cx="247.5"
         sodipodi:cy="477.36218"
         sodipodi:rx="22.5"
         sodipodi:ry="20"
         d="m 270,477.36218 a 22.5,20 0 1 1 -45,0 22.5,20 0 1 1 45,0 z"
         transform="matrix(1.3224827,0,0,1,-197.5586,-112.75879)" />
      <text
         xml:space="preserve"
         style="font-size:10px;font-style:normal;font-weight:normal;text-align:center;line-height:125%;letter-spacing:0px;word-spacing:0px;text-anchor:middle;fill:#000000;fill-opacity:1;stroke:none;font-family:Sans"
         x="130"
         y="361.99841"
         id="text4472"
         sodipodi:linespacing="125%"><tspan
           sodipodi:role="line"
           id="tspan4474"
           x="130"
           y="361.99841">Browser</tspan><tspan
           sodipodi:role="line"
           x="130"
           y="374.49841"
           id="tspan4538">XHR</tspan></text>
    </g>
    <g
       id="g4522"
       transform="translate(-20,-13.75)">
      <path
         transform="matrix(1.5636936,0,0,0.92423856,-197.19726,-56.593142)"
         d="m 270,477.36218 a 22.5,20 0 1 1 -45,0 22.5,20 0 1 1 45,0 z"
         sodipodi:ry="20"
         sodipodi:rx="22.5"
         sodipodi:cy="477.36218"
         sodipodi:cx="247.5"
         id="path4478"
         style="color:#000000;fill:none;stroke:#000000;stroke-width:0.83182526;stroke-linecap:butt;stroke-linejoin:miter;stroke-miterlimit:4;stroke-opacity:1;stroke-dasharray:none;stroke-dashoffset:0;marker:none;visibility:visible;display:inline;overflow:visible;enable-background:accumulate"
         sodipodi:type="arc" />
      <text
         sodipodi:linespacing="125%"
         id="text4480"
         y="381.11218"
         x="190"
         style="font-size:10px;font-style:normal;font-weight:normal;text-align:center;line-height:125%;letter-spacing:0px;word-spacing:0px;text-anchor:middle;fill:#000000;fill-opacity:1;stroke:none;font-family:Sans"
         xml:space="preserve"><tspan
           y="381.11218"
           x="190"
           id="tspan4482"
           sodipodi:role="line">streaming</tspan><tspan
           y="393.61218"
           x="190"
           sodipodi:role="line"
           id="tspan4516">http</tspan></text>
    </g>
    <g
       transform="translate(79.755859,-92.758789)"
       id="g4484">
      <path
         sodipodi:type="arc"
         style="color:#000000;fill:none;stroke:#000000;stroke-width:0.86252284;stroke-linecap:butt;stroke-linejoin:miter;stroke-miterlimit:4;stroke-opacity:1;stroke-dasharray:none;stroke-dashoffset:0;marker:none;visibility:visible;display:inline;overflow:visible;enable-background:accumulate"
         id="path4486"
         sodipodi:cx="247.5"
         sodipodi:cy="477.36218"
         sodipodi:rx="22.5"
         sodipodi:ry="20"
         d="m 270,477.36218 c 0,11.0457 -10.07359,20 -22.5,20 -12.42641,0 -22.5,-8.9543 -22.5,-20 0,-11.04569 10.07359,-20 22.5,-20 12.42641,0 22.5,8.95431 22.5,20 z"
         transform="matrix(1.344184,0,0,1,-122.68554,-15)" />
      <text
         xml:space="preserve"
         style="font-size:10px;font-style:normal;font-weight:normal;text-align:center;line-height:125%;letter-spacing:0px;word-spacing:0px;text-anchor:middle;fill:#000000;fill-opacity:1;stroke:none;font-family:Sans"
         x="210.24414"
         y="465.12097"
         id="text4488"
         sodipodi:linespacing="125%"><tspan
           sodipodi:role="line"
           id="tspan4490"
           x="210.24414"
           y="465.12097">controller</tspan></text>
    </g>
    <g
       id="g4610"
       transform="translate(-7.7441406,-1.5087891)">
      <path
         transform="matrix(1.6413844,0,0,1,-8.1738,-65)"
         d="m 270,477.36218 c 0,11.0457 -10.07359,20 -22.5,20 -12.42641,0 -22.5,-8.9543 -22.5,-20 0,-11.04569 10.07359,-20 22.5,-20 12.42641,0 22.5,8.95431 22.5,20 z"
         sodipodi:ry="20"
         sodipodi:rx="22.5"
         sodipodi:cy="477.36218"
         sodipodi:cx="247.5"
         id="path4494"
         style="color:#000000;fill:none;stroke:#000000;stroke-width:0.78053939;stroke-linecap:butt;stroke-linejoin:miter;stroke-miterlimit:4;stroke-opacity:1;stroke-dasharray:none;stroke-dashoffset:0;marker:none;visibility:visible;display:inline;overflow:visible;enable-background:accumulate"
         sodipodi:type="arc" />
      <text
         sodipodi:linespacing="125%"
         id="text4496"
         y="408.87097"
         x="397.74414"
         style="font-size:10px;font-style:normal;font-weight:normal;text-align:center;line-height:125%;letter-spacing:0px;word-spacing:0px;text-anchor:middle;fill:#000000;fill-opacity:1;stroke:none;font-family:Sans"
         xml:space="preserve"><tspan
           y="408.87097"
           x="397.74414"
           id="tspan4498"
           sodipodi:role="line">clarinet</tspan><tspan
           y="421.37097"
           x="397.74414"
           sodipodi:role="line"
           id="tspan4592">SAX parser</tspan></text>
    </g>
    <g
       id="g4624"
       transform="translate(-14.755865,-287.24121)">
      <g
         id="g4884"
         transform="translate(4.755859,39.999999)">
        <path
           sodipodi:type="arc"
           style="color:#000000;fill:none;stroke:#000000;stroke-width:0.94408464;stroke-linecap:butt;stroke-linejoin:miter;stroke-miterlimit:4;stroke-opacity:1;stroke-dasharray:none;stroke-dashoffset:0;marker:none;visibility:visible;display:inline;overflow:visible;enable-background:accumulate"
           id="path4510"
           sodipodi:cx="247.5"
           sodipodi:cy="477.36218"
           sodipodi:rx="22.5"
           sodipodi:ry="20"
           d="m 270,477.36218 c 0,11.0457 -10.07359,20 -22.5,20 -12.42641,0 -22.5,-8.9543 -22.5,-20 0,-11.04569 10.07359,-20 22.5,-20 12.42641,0 22.5,8.95431 22.5,20 z"
           transform="matrix(1.1219618,0,0,1,117.07032,82.241211)" />
        <text
           xml:space="preserve"
           style="font-size:10px;font-style:normal;font-weight:normal;text-align:center;line-height:125%;letter-spacing:0px;word-spacing:0px;text-anchor:middle;fill:#000000;fill-opacity:1;stroke:none;font-family:Sans"
           x="395"
           y="562.36218"
           id="text4512"
           sodipodi:linespacing="125%"><tspan
             sodipodi:role="line"
             id="tspan4514"
             x="395"
             y="562.36218">jsonPath</tspan></text>
      </g>
      <g
         id="g4900">
        <g
           id="g4913"
           transform="translate(-4.7558605,9.9999957)">
          <path
             sodipodi:type="arc"
             style="color:#000000;fill:#ffffff;fill-opacity:1;stroke:#000000;stroke-width:1.0901351;stroke-linecap:butt;stroke-linejoin:miter;stroke-miterlimit:4;stroke-opacity:1;stroke-dasharray:none;stroke-dashoffset:0;marker:none;visibility:visible;display:inline;overflow:visible;enable-background:accumulate"
             id="path4891"
             sodipodi:cx="247.5"
             sodipodi:cy="477.36218"
             sodipodi:rx="22.5"
             sodipodi:ry="20"
             d="m 270,477.36218 c 0,11.0457 -10.07359,20 -22.5,20 -12.42641,0 -22.5,-8.9543 -22.5,-20 0,-11.04569 10.07359,-20 22.5,-20 12.42641,0 22.5,8.95431 22.5,20 z"
             transform="matrix(1.1219618,0,0,0.75,-203.17382,411.58176)" />
          <text
             xml:space="preserve"
             style="font-size:10px;font-style:normal;font-weight:normal;text-align:center;line-height:125%;letter-spacing:0px;word-spacing:0px;text-anchor:middle;fill:#000000;fill-opacity:1;stroke:none;font-family:Sans"
             x="74.755859"
             y="772.36218"
             id="text4893"
             sodipodi:linespacing="125%"><tspan
               sodipodi:role="line"
               id="tspan4895"
               x="74.755859"
               y="772.36218">callbacks</tspan></text>
        </g>
      </g>
    </g>
    <g
       id="g4554"
       transform="translate(-20,-13.75)">
      <path
         transform="translate(-77.744141,-152.75879)"
         d="m 270,477.36218 a 22.5,20 0 1 1 -45,0 22.5,20 0 1 1 45,0 z"
         sodipodi:ry="20"
         sodipodi:rx="22.5"
         sodipodi:cy="477.36218"
         sodipodi:cx="247.5"
         id="path4530"
         style="color:#000000;fill:none;stroke:#000000;stroke-width:0.99999994;stroke-linecap:butt;stroke-linejoin:miter;stroke-miterlimit:4;stroke-opacity:1;stroke-dasharray:none;stroke-dashoffset:0;marker:none;visibility:visible;display:inline;overflow:visible;enable-background:accumulate"
         sodipodi:type="arc" />
      <text
         sodipodi:linespacing="125%"
         id="text4532"
         y="321.11218"
         x="170"
         style="font-size:10px;font-style:normal;font-weight:normal;text-align:center;line-height:125%;letter-spacing:0px;word-spacing:0px;text-anchor:middle;fill:#000000;fill-opacity:1;stroke:none;font-family:Sans"
         xml:space="preserve"><tspan
           y="321.11218"
           x="170"
           id="tspan4534"
           sodipodi:role="line">Node</tspan><tspan
           y="333.61218"
           x="170"
           sodipodi:role="line"
           id="tspan4536">http</tspan></text>
    </g>
    <rect
       style="color:#000000;fill:none;stroke:#000000;stroke-width:0.99999982;stroke-linecap:butt;stroke-linejoin:miter;stroke-miterlimit:4;stroke-opacity:1;stroke-dasharray:none;stroke-dashoffset:0;marker:none;visibility:visible;display:inline;overflow:visible;enable-background:accumulate"
       id="rect4560"
       width="165"
       height="109.99999"
       x="20"
       y="227.36217" />
    <flowRoot
       xml:space="preserve"
       style="font-size:10px;font-style:normal;font-weight:normal;text-align:center;line-height:125%;letter-spacing:0px;word-spacing:0px;text-anchor:middle;fill:#000000;fill-opacity:1;stroke:none;font-family:Sans"
       id="flowRoot4582"
       transform="translate(-0.49072266,10.019691)"><flowRegion
         id="flowRegion4584"><use
           x="0"
           y="0"
           xlink:href="#rect4560"
           id="use4586"
           width="744.09448"
           height="1052.3622" /></flowRegion><flowPara
         id="flowPara4588">Either a Browser XMLHttpRequest object, or a Node http object are created, depending on environment. </flowPara></flowRoot>    <g
       transform="translate(253.25587,122.24122)"
       id="g4602"
       inkscape:transform-center-y="2.24121">
      <path
         sodipodi:type="arc"
         style="color:#000000;fill:none;stroke:#000000;stroke-width:0.99999994;stroke-linecap:butt;stroke-linejoin:miter;stroke-miterlimit:4;stroke-opacity:1;stroke-dasharray:none;stroke-dashoffset:0;marker:none;visibility:visible;display:inline;overflow:visible;enable-background:accumulate"
         id="path4604"
         sodipodi:cx="247.5"
         sodipodi:cy="477.36218"
         sodipodi:rx="22.5"
         sodipodi:ry="20"
         d="m 270,477.36218 c 0,11.0457 -10.07359,20 -22.5,20 -12.42641,0 -22.5,-8.9543 -22.5,-20 0,-11.04569 10.07359,-20 22.5,-20 12.42641,0 22.5,8.95431 22.5,20 z"
         transform="translate(-37.5,-15)" />
      <g
         id="g4667">
        <text
           sodipodi:linespacing="125%"
           id="text4606"
           y="465.12097"
           x="210.24414"
           style="font-size:10px;font-style:normal;font-weight:normal;text-align:center;line-height:125%;letter-spacing:0px;word-spacing:0px;text-anchor:middle;fill:#000000;fill-opacity:1;stroke:none;font-family:Sans"
           xml:space="preserve"><tspan
             y="465.12097"
             x="210.24414"
             id="tspan4608"
             sodipodi:role="line">ascent</tspan></text>
        <text
           xml:space="preserve"
           style="font-size:10px;font-style:normal;font-weight:normal;text-align:end;line-height:125%;letter-spacing:0px;word-spacing:0px;text-anchor:end;fill:#000000;fill-opacity:1;stroke:none;font-family:Sans"
           x="235.39062"
           y="430.12097"
           id="text4671"
           sodipodi:linespacing="125%"><tspan
             sodipodi:role="line"
             id="tspan4673"
             x="235.39062"
             y="430.12097">traces</tspan></text>
      </g>
    </g>
    <g
       id="g4631"
       transform="translate(17.50001,8.3170764)">
      <path
         sodipodi:type="arc"
         style="color:#000000;fill:none;stroke:#000000;stroke-width:0.69679272;stroke-linecap:butt;stroke-linejoin:miter;stroke-miterlimit:4;stroke-opacity:1;stroke-dasharray:none;stroke-dashoffset:0;marker:none;visibility:visible;display:inline;overflow:visible;enable-background:accumulate"
         id="path4502"
         sodipodi:cx="247.5"
         sodipodi:cy="477.36218"
         sodipodi:rx="22.5"
         sodipodi:ry="20"
         d="m 270,477.36218 c 0,11.0457 -10.07359,20 -22.5,20 -12.42641,0 -22.5,-8.9543 -22.5,-20 0,-11.04569 10.07359,-20 22.5,-20 12.42641,0 22.5,8.95431 22.5,20 z"
         transform="matrix(1.7886284,0,0,1.1515229,-17.92968,-56.389887)" />
      <text
         xml:space="preserve"
         style="font-size:10px;font-style:normal;font-weight:normal;text-align:center;line-height:125%;letter-spacing:0px;word-spacing:0px;text-anchor:middle;fill:#000000;fill-opacity:1;stroke:none;font-family:Sans"
         x="425"
         y="484.53162"
         id="text4504"
         sodipodi:linespacing="125%"><tspan
           sodipodi:role="line"
           id="tspan4506"
           x="425"
           y="484.53162">incremental</tspan><tspan
           sodipodi:role="line"
           x="425"
           y="497.03162"
           id="tspan4598">content</tspan><tspan
           sodipodi:role="line"
           x="425"
           y="509.53162"
           id="tspan4600">builder</tspan></text>
      <path
         transform="matrix(1.7886284,0,0,1.1515229,-17.92968,-56.389887)"
         d="m 270,477.36218 c 0,11.0457 -10.07359,20 -22.5,20 -12.42641,0 -22.5,-8.9543 -22.5,-20 0,-11.04569 10.07359,-20 22.5,-20 12.42641,0 22.5,8.95431 22.5,20 z"
         sodipodi:ry="20"
         sodipodi:rx="22.5"
         sodipodi:cy="477.36218"
         sodipodi:cx="247.5"
         id="path4629"
         style="color:#000000;fill:none;stroke:#000000;stroke-width:0.69679272;stroke-linecap:butt;stroke-linejoin:miter;stroke-miterlimit:4;stroke-opacity:1;stroke-dasharray:none;stroke-dashoffset:0;marker:none;visibility:visible;display:inline;overflow:visible;enable-background:accumulate"
         sodipodi:type="arc" />
    </g>
    <text
       xml:space="preserve"
       style="font-size:10px;font-style:normal;font-weight:normal;text-align:center;line-height:125%;letter-spacing:0px;word-spacing:0px;text-anchor:middle;fill:#000000;fill-opacity:1;stroke:none;font-family:Sans"
       x="382.5"
       y="498.81061"
       id="text4643"
       sodipodi:linespacing="125%"><tspan
         sodipodi:role="line"
         x="382.5"
         y="498.81061"
         id="tspan4649">ascent</tspan><tspan
         sodipodi:role="line"
         x="382.5"
         y="511.31061"
         id="tspan4663">tracker</tspan></text>
    <path
       transform="matrix(3.0000002,0,0,1.7129238,-322.50005,-316.06439)"
       d="m 270,477.36218 a 22.5,20 0 1 1 -45,0 22.5,20 0 1 1 45,0 z"
       sodipodi:ry="20"
       sodipodi:rx="22.5"
       sodipodi:cy="477.36218"
       sodipodi:cx="247.5"
       id="path4651"
       style="color:#000000;fill:none;stroke:#000000;stroke-width:0.44113374;stroke-linecap:butt;stroke-linejoin:miter;stroke-miterlimit:4;stroke-opacity:1;stroke-dasharray:none;stroke-dashoffset:0;marker:none;visibility:visible;display:inline;overflow:visible;enable-background:accumulate"
       sodipodi:type="arc" />
    <path
       style="fill:none;stroke:#000000;stroke-width:1px;stroke-linecap:butt;stroke-linejoin:miter;stroke-opacity:1;marker-end:url(#Arrow1Mend)"
       d="m 478.50001,517.36219 c 20,20 20,40 5,60"
       id="path4665"
       inkscape:connector-curvature="0"
       sodipodi:nodetypes="cc" />
    <path
       sodipodi:nodetypes="cc"
       inkscape:connector-curvature="0"
       id="path4918"
       d="m 215,492.36218 c -65,-20 -150,-75 -145,-150"
       style="fill:none;stroke:#000000;stroke-width:1px;stroke-linecap:butt;stroke-linejoin:miter;stroke-opacity:1;marker-end:url(#Arrow1Mend)" />
    <path
       style="fill:none;stroke:#000000;stroke-width:1px;stroke-linecap:butt;stroke-linejoin:miter;stroke-opacity:1;marker-end:url(#Arrow1Mend)"
       d="m 255,502.36218 c 25,-20 65,-30 100,-15"
       id="path4920"
       inkscape:connector-curvature="0"
       sodipodi:nodetypes="cc" />
    <path
       sodipodi:nodetypes="cc"
       inkscape:connector-curvature="0"
       id="path4922"
       d="m 250,487.36218 c 25,-30 70,-55 105,-65"
       style="fill:none;stroke:#000000;stroke-width:1px;stroke-linecap:butt;stroke-linejoin:miter;stroke-opacity:1;marker-end:url(#Arrow1Mend)" />
    <g
       id="g4447"
       transform="translate(25,35)">
      <path
         transform="translate(-37.5,-15)"
         d="m 270,477.36218 a 22.5,20 0 1 1 -45,0 22.5,20 0 1 1 45,0 z"
         sodipodi:ry="20"
         sodipodi:rx="22.5"
         sodipodi:cy="477.36218"
         sodipodi:cx="247.5"
         id="path3534"
         style="color:#000000;fill:#ffffff;stroke:#000000;stroke-width:0.99999994000000003;stroke-linecap:butt;stroke-linejoin:miter;stroke-miterlimit:4;stroke-opacity:1;stroke-dasharray:none;stroke-dashoffset:0;marker:none;visibility:visible;display:inline;overflow:visible;enable-background:accumulate;fill-opacity:1"
         sodipodi:type="arc" />
      <text
         sodipodi:linespacing="125%"
         id="text4410"
         y="465.12097"
         x="210.24414"
         style="font-size:10px;font-style:normal;font-weight:normal;text-align:center;line-height:125%;letter-spacing:0px;word-spacing:0px;text-anchor:middle;fill:#000000;fill-opacity:1;stroke:none;font-family:Sans"
         xml:space="preserve"><tspan
           y="465.12097"
           x="210.24414"
           id="tspan4412"
           sodipodi:role="line">wiring</tspan></text>
    </g>
    <path
       style="fill:none;stroke:#000000;stroke-width:1px;stroke-linecap:butt;stroke-linejoin:miter;stroke-opacity:1;marker-end:url(#Arrow1Mend)"
       d="m 240,477.36218 c -5,-30 0,-75 25,-90"
       id="path4924"
       inkscape:connector-curvature="0"
       sodipodi:nodetypes="cc" />
  </g>
</svg>
