<?xml version="1.0" encoding="UTF-8" standalone="no"?>
<!-- Created with Inkscape (http://www.inkscape.org/) -->

<svg
   xmlns:dc="http://purl.org/dc/elements/1.1/"
   xmlns:cc="http://creativecommons.org/ns#"
   xmlns:rdf="http://www.w3.org/1999/02/22-rdf-syntax-ns#"
   xmlns:svg="http://www.w3.org/2000/svg"
   xmlns="http://www.w3.org/2000/svg"
   xmlns:xlink="http://www.w3.org/1999/xlink"
   xmlns:sodipodi="http://sodipodi.sourceforge.net/DTD/sodipodi-0.dtd"
   xmlns:inkscape="http://www.inkscape.org/namespaces/inkscape"
   width="744.09448819"
   height="1052.3622047"
   id="svg2"
   version="1.1"
   inkscape:version="0.48.2 r9819"
   sodipodi:docname="overallDesign.svg"
   inkscape:export-filename="/Users/jimhigson/Sites/progressivejson/writing/images/rest_timeline.png"
   inkscape:export-xdpi="599.89062"
   inkscape:export-ydpi="599.89062">
  <defs
     id="defs4">
    <marker
       inkscape:stockid="Arrow1Mend"
       orient="auto"
       refY="0.0"
       refX="0.0"
       id="Arrow1Mend"
       style="overflow:visible;">
      <path
         id="path4115"
         d="M 0.0,0.0 L 5.0,-5.0 L -12.5,0.0 L 5.0,5.0 L 0.0,0.0 z "
         style="fill-rule:evenodd;stroke:#000000;stroke-width:1.0pt;marker-start:none;"
         transform="scale(0.4) rotate(180) translate(10,0)" />
    </marker>
    <marker
       inkscape:stockid="Arrow1Mstart"
       orient="auto"
       refY="0.0"
       refX="0.0"
       id="Arrow1Mstart"
       style="overflow:visible">
      <path
         id="path4112"
         d="M 0.0,0.0 L 5.0,-5.0 L -12.5,0.0 L 5.0,5.0 L 0.0,0.0 z "
         style="fill-rule:evenodd;stroke:#000000;stroke-width:1.0pt;marker-start:none"
         transform="scale(0.4) translate(10,0)" />
    </marker>
    <marker
       inkscape:stockid="Arrow2Send"
       orient="auto"
       refY="0.0"
       refX="0.0"
       id="Arrow2Send"
       style="overflow:visible;">
      <path
         id="path4139"
         style="font-size:12.0;fill-rule:evenodd;stroke-width:0.62500000;stroke-linejoin:round;"
         d="M 8.7185878,4.0337352 L -2.2072895,0.016013256 L 8.7185884,-4.0017078 C 6.9730900,-1.6296469 6.9831476,1.6157441 8.7185878,4.0337352 z "
         transform="scale(0.3) rotate(180) translate(-2.3,0)" />
    </marker>
    <marker
       inkscape:stockid="Arrow2Mend"
       orient="auto"
       refY="0.0"
       refX="0.0"
       id="Arrow2Mend"
       style="overflow:visible;">
      <path
         id="path4133"
         style="font-size:12.0;fill-rule:evenodd;stroke-width:0.62500000;stroke-linejoin:round;"
         d="M 8.7185878,4.0337352 L -2.2072895,0.016013256 L 8.7185884,-4.0017078 C 6.9730900,-1.6296469 6.9831476,1.6157441 8.7185878,4.0337352 z "
         transform="scale(0.6) rotate(180) translate(0,0)" />
    </marker>
    <marker
       inkscape:stockid="Torso"
       orient="auto"
       refY="0.0"
       refX="0.0"
       id="Torso"
       style="overflow:visible">
      <g
         id="g4319"
         transform="scale(0.7)">
        <path
           id="path4321"
           d="M -4.7792281,-3.2395420 C -2.4288541,-2.8736027 0.52103922,-1.3019943 0.25792722,0.38794346 C -0.0051877922,2.0778819 -2.2126741,2.6176539 -4.5630471,2.2517169 C -6.9134221,1.8857769 -8.5210350,0.75201414 -8.2579220,-0.93792336 C -7.9948090,-2.6278615 -7.1296041,-3.6054813 -4.7792281,-3.2395420 z "
           style="fill:none;fill-opacity:0.75000000;fill-rule:evenodd;stroke:#000000;stroke-width:1.2500000;marker-start:none;marker-mid:none;marker-end:none" />
        <path
           id="path4323"
           d="M 4.4598789,0.088665736 C -2.5564571,-4.3783320 5.2248769,-3.9061806 -0.84829578,-8.7197331"
           style="fill:none;fill-opacity:0.75000000;fill-rule:evenodd;stroke:#000000;stroke-width:1.0000000pt;marker-end:none" />
        <path
           id="path4325"
           d="M 4.9298719,0.057520736 C -1.3872731,1.7494689 1.8027579,5.4782079 -4.9448731,7.5462725"
           style="fill:none;fill-opacity:0.75000000;fill-rule:evenodd;stroke:#000000;stroke-width:1.0000000pt;marker-start:none;marker-end:none" />
        <rect
           id="rect4327"
           transform="matrix(0.527536,-0.849533,0.887668,0.460484,0,0)"
           y="-1.7408575"
           x="-10.391706"
           height="2.7608147"
           width="2.6366582"
           style="fill-rule:evenodd;stroke-width:1.0000000pt;marker-end:none" />
        <rect
           id="rect4329"
           transform="matrix(0.671205,-0.741272,0.790802,0.612072,0,0)"
           y="-7.9629307"
           x="4.9587269"
           height="2.8614161"
           width="2.7327356"
           style="fill-rule:evenodd;stroke-width:1.0000000pt;marker-end:none" />
        <path
           id="path4331"
           transform="matrix(0,-1.109517,1.109517,0,25.96648,19.71619)"
           d="m 16.779951,-28.685045 c 0,0.335412 -0.271905,0.607317 -0.607317,0.607317 -0.335412,0 -0.607317,-0.271905 -0.607317,-0.607317 0,-0.335412 0.271905,-0.607318 0.607317,-0.607318 0.335412,0 0.607317,0.271906 0.607317,0.607318 z"
           sodipodi:ry="0.60731727"
           sodipodi:rx="0.60731727"
           sodipodi:cy="-28.685045"
           sodipodi:cx="16.172634"
           style="fill:#ff0000;fill-opacity:0.75000000;fill-rule:evenodd;stroke:#000000;stroke-width:1.0000000pt;marker-start:none;marker-end:none"
           sodipodi:type="arc" />
        <path
           id="path4333"
           transform="matrix(0,-1.109517,1.109517,0,26.82450,16.99126)"
           d="m 16.779951,-28.685045 c 0,0.335412 -0.271905,0.607317 -0.607317,0.607317 -0.335412,0 -0.607317,-0.271905 -0.607317,-0.607317 0,-0.335412 0.271905,-0.607318 0.607317,-0.607318 0.335412,0 0.607317,0.271906 0.607317,0.607318 z"
           sodipodi:ry="0.60731727"
           sodipodi:rx="0.60731727"
           sodipodi:cy="-28.685045"
           sodipodi:cx="16.172634"
           style="fill:#ff0000;fill-opacity:0.75000000;fill-rule:evenodd;stroke:#000000;stroke-width:1.0000000pt;marker-start:none;marker-end:none"
           sodipodi:type="arc" />
      </g>
    </marker>
    <marker
       inkscape:stockid="Arrow2Lend"
       orient="auto"
       refY="0.0"
       refX="0.0"
       id="Arrow2Lend"
       style="overflow:visible;">
      <path
         id="path4127"
         style="font-size:12.0;fill-rule:evenodd;stroke-width:0.62500000;stroke-linejoin:round;"
         d="M 8.7185878,4.0337352 L -2.2072895,0.016013256 L 8.7185884,-4.0017078 C 6.9730900,-1.6296469 6.9831476,1.6157441 8.7185878,4.0337352 z "
         transform="scale(1.1) rotate(180) translate(1,0)" />
    </marker>
    <marker
       inkscape:stockid="Arrow1Lend"
       orient="auto"
       refY="0.0"
       refX="0.0"
       id="Arrow1Lend"
       style="overflow:visible;">
      <path
         id="path4109"
         d="M 0.0,0.0 L 5.0,-5.0 L -12.5,0.0 L 5.0,5.0 L 0.0,0.0 z "
         style="fill-rule:evenodd;stroke:#000000;stroke-width:1.0pt;marker-start:none;"
         transform="scale(0.8) rotate(180) translate(12.5,0)" />
    </marker>
    <marker
       inkscape:stockid="Arrow2Lend"
       orient="auto"
       refY="0"
       refX="0"
       id="Arrow2Lend-6"
       style="overflow:visible">
      <path
         inkscape:connector-curvature="0"
         id="path4127-7"
         style="font-size:12px;fill-rule:evenodd;stroke-width:0.625;stroke-linejoin:round"
         d="M 8.7185878,4.0337352 -2.2072895,0.01601326 8.7185884,-4.0017078 c -1.7454984,2.3720609 -1.7354408,5.6174519 -6e-7,8.035443 z"
         transform="matrix(-1.1,0,0,-1.1,-1.1,0)" />
    </marker>
    <marker
       inkscape:stockid="Arrow2Lend"
       orient="auto"
       refY="0"
       refX="0"
       id="Arrow2Lend-9"
       style="overflow:visible">
      <path
         inkscape:connector-curvature="0"
         id="path4127-1"
         style="font-size:12px;fill-rule:evenodd;stroke-width:0.625;stroke-linejoin:round"
         d="M 8.7185878,4.0337352 -2.2072895,0.01601326 8.7185884,-4.0017078 c -1.7454984,2.3720609 -1.7354408,5.6174519 -6e-7,8.035443 z"
         transform="matrix(-1.1,0,0,-1.1,-1.1,0)" />
    </marker>
    <marker
       inkscape:stockid="Arrow2Lend"
       orient="auto"
       refY="0"
       refX="0"
       id="Arrow2Lend-1"
       style="overflow:visible">
      <path
         inkscape:connector-curvature="0"
         id="path4127-3"
         style="font-size:12px;fill-rule:evenodd;stroke-width:0.625;stroke-linejoin:round"
         d="M 8.7185878,4.0337352 -2.2072895,0.01601326 8.7185884,-4.0017078 c -1.7454984,2.3720609 -1.7354408,5.6174519 -6e-7,8.035443 z"
         transform="matrix(-1.1,0,0,-1.1,-1.1,0)" />
    </marker>
    <marker
       inkscape:stockid="Arrow2Lend"
       orient="auto"
       refY="0"
       refX="0"
       id="Arrow2Lend-7"
       style="overflow:visible">
      <path
         inkscape:connector-curvature="0"
         id="path4127-2"
         style="font-size:12px;fill-rule:evenodd;stroke-width:0.625;stroke-linejoin:round"
         d="M 8.7185878,4.0337352 -2.2072895,0.01601326 8.7185884,-4.0017078 c -1.7454984,2.3720609 -1.7354408,5.6174519 -6e-7,8.035443 z"
         transform="matrix(-1.1,0,0,-1.1,-1.1,0)" />
    </marker>
  </defs>
  <sodipodi:namedview
     id="base"
     pagecolor="#ffffff"
     bordercolor="#666666"
     borderopacity="1.0"
     inkscape:pageopacity="0.0"
     inkscape:pageshadow="2"
     inkscape:zoom="2.3748895"
     inkscape:cx="267.24534"
     inkscape:cy="642.24313"
     inkscape:document-units="px"
     inkscape:current-layer="layer1"
     showgrid="true"
     inkscape:snap-global="true"
     inkscape:window-width="1920"
     inkscape:window-height="1152"
     inkscape:window-x="0"
     inkscape:window-y="0"
     inkscape:window-maximized="1">
    <inkscape:grid
       type="xygrid"
       id="grid2985"
       empspacing="5"
       visible="true"
       enabled="true"
       snapvisiblegridlinesonly="true"
       color="#0000ff"
       opacity="0.05098039"
       empcolor="#000bc0"
       empopacity="0.05098039" />
  </sodipodi:namedview>
  <metadata
     id="metadata7">
    <rdf:RDF>
      <cc:Work
         rdf:about="">
        <dc:format>image/svg+xml</dc:format>
        <dc:type
           rdf:resource="http://purl.org/dc/dcmitype/StillImage" />
        <dc:title></dc:title>
      </cc:Work>
    </rdf:RDF>
  </metadata>
  <g
     inkscape:label="Layer 1"
     inkscape:groupmode="layer"
     id="layer1">
    <path
       sodipodi:nodetypes="cc"
       inkscape:connector-curvature="0"
       id="path5176"
       d="m 85,507.36218 c 20,10 30,15 40,35"
       style="fill:none;stroke:#000000;stroke-width:1px;stroke-linecap:butt;stroke-linejoin:miter;stroke-opacity:1;marker-end:url(#Arrow1Mend)" />
    <g
       id="g4460"
       transform="translate(-145.00001,55)">
      <path
         transform="matrix(1.7777776,0,0,1.6250004,-234.99994,-328.35156)"
         d="m 270,477.36218 c 0,11.0457 -10.07359,20 -22.5,20 -12.42641,0 -22.5,-8.9543 -22.5,-20 0,-11.04569 10.07359,-20 22.5,-20 12.42641,0 22.5,8.95431 22.5,20 z"
         sodipodi:ry="20"
         sodipodi:rx="22.5"
         sodipodi:cy="477.36218"
         sodipodi:cx="247.5"
         id="path4462"
         style="color:#000000;fill:#ffffff;stroke:#000000;stroke-width:0.58834832999999997;stroke-linecap:butt;stroke-linejoin:miter;stroke-miterlimit:4;stroke-opacity:1;stroke-dasharray:none;stroke-dashoffset:0;marker:none;visibility:visible;display:inline;overflow:visible;enable-background:accumulate;fill-opacity:1"
         sodipodi:type="arc" />
      <text
         sodipodi:linespacing="125%"
         id="text4464"
         y="467.36218"
         x="205.00002"
         style="font-size:10px;font-style:normal;font-weight:normal;text-align:center;line-height:125%;letter-spacing:0px;word-spacing:0px;text-anchor:middle;fill:#000000;fill-opacity:1;stroke:none;font-family:Sans"
         xml:space="preserve"><tspan
           y="467.36218"
           x="205.00002"
           id="tspan4466"
           sodipodi:role="line">application</tspan></text>
    </g>
    <use
       x="0"
       y="0"
       xlink:href="#g5004"
       id="use5076"
       transform="matrix(0,1,-1,0,388.43362,-30.13782)"
       width="744.09448"
       height="1052.3622" />
    <rect
       style="color:#000000;fill:#ffffff;stroke:#000000;stroke-width:0.99999981999999998;stroke-linecap:butt;stroke-linejoin:miter;stroke-miterlimit:4;stroke-opacity:1;stroke-dasharray:none;stroke-dashoffset:0;marker:none;visibility:visible;display:inline;overflow:visible;enable-background:accumulate;fill-opacity:1"
       id="rect4560"
       width="165"
       height="109.99999"
       x="20"
       y="227.36217" />
    <g
       id="g4548"
       transform="translate(-70,-53.75)">
      <path
         sodipodi:type="arc"
         style="color:#000000;fill:none;stroke:#000000;stroke-width:0.86957085;stroke-linecap:butt;stroke-linejoin:miter;stroke-miterlimit:4;stroke-opacity:1;stroke-dasharray:none;stroke-dashoffset:0;marker:none;visibility:visible;display:inline;overflow:visible;enable-background:accumulate"
         id="path4470"
         sodipodi:cx="247.5"
         sodipodi:cy="477.36218"
         sodipodi:rx="22.5"
         sodipodi:ry="20"
         d="m 270,477.36218 a 22.5,20 0 1 1 -45,0 22.5,20 0 1 1 45,0 z"
         transform="matrix(1.3224827,0,0,1,-197.5586,-112.75879)" />
      <text
         xml:space="preserve"
         style="font-size:10px;font-style:normal;font-weight:normal;text-align:center;line-height:125%;letter-spacing:0px;word-spacing:0px;text-anchor:middle;fill:#000000;fill-opacity:1;stroke:none;font-family:Sans"
         x="130"
         y="361.99841"
         id="text4472"
         sodipodi:linespacing="125%"><tspan
           sodipodi:role="line"
           id="tspan4474"
           x="130"
           y="361.99841">Browser</tspan><tspan
           sodipodi:role="line"
           x="130"
           y="374.49841"
           id="tspan4538">XHR</tspan></text>
    </g>
    <g
       id="g4991"
       transform="translate(9.0913729,-67.67241)">
      <path
         inkscape:connector-curvature="0"
         id="path4989"
         d="m 235,257.36218 0,20"
         style="fill:none;stroke:#000000;stroke-width:1px;stroke-linecap:butt;stroke-linejoin:miter;stroke-opacity:1" />
      <path
         transform="translate(-5,0)"
         d="m 245,257.36218 c 0,2.76143 -2.23858,5 -5,5 -2.76142,0 -5,-2.23857 -5,-5 0,-2.76142 2.23858,-5 5,-5 2.76142,0 5,2.23858 5,5 z"
         sodipodi:ry="5"
         sodipodi:rx="5"
         sodipodi:cy="257.36218"
         sodipodi:cx="240"
         id="path4987"
         style="color:#000000;fill:#ffffff;fill-opacity:1;fill-rule:nonzero;stroke:#000000;stroke-width:0.99999994;stroke-linecap:butt;stroke-linejoin:miter;stroke-miterlimit:4;stroke-opacity:1;stroke-dasharray:none;stroke-dashoffset:0;marker:none;visibility:visible;display:inline;overflow:visible;enable-background:accumulate"
         sodipodi:type="arc" />
    </g>
    <use
       x="0"
       y="0"
       xlink:href="#g4991"
       id="use5146"
       transform="translate(-4.0913729,67.67241)"
       width="744.09448"
       height="1052.3622" />
    <g
       id="g4522"
       transform="translate(-20,-13.75)">
      <g
         id="g4970"
         transform="translate(84.999988,-83.491212)">
        <path
           sodipodi:type="arc"
           style="color:#000000;fill:#ffffff;stroke:#000000;stroke-width:0.83182526000000001;stroke-linecap:butt;stroke-linejoin:miter;stroke-miterlimit:4;stroke-opacity:1;stroke-dasharray:none;stroke-dashoffset:0;marker:none;visibility:visible;display:inline;overflow:visible;enable-background:accumulate;fill-opacity:1"
           id="path4478"
           sodipodi:cx="247.5"
           sodipodi:cy="477.36218"
           sodipodi:rx="22.5"
           sodipodi:ry="20"
           d="m 270,477.36218 c 0,11.0457 -10.07359,20 -22.5,20 -12.42641,0 -22.5,-8.9543 -22.5,-20 0,-11.04569 10.07359,-20 22.5,-20 12.42641,0 22.5,8.95431 22.5,20 z"
           transform="matrix(1.5636936,0,0,0.92423856,-197.19726,-56.593142)" />
        <text
           xml:space="preserve"
           style="font-size:10px;font-style:normal;font-weight:normal;text-align:center;line-height:125%;letter-spacing:0px;word-spacing:0px;text-anchor:middle;fill:#000000;fill-opacity:1;stroke:none;font-family:Sans"
           x="190"
           y="381.11218"
           id="text4480"
           sodipodi:linespacing="125%"><tspan
             sodipodi:role="line"
             id="tspan4482"
             x="190"
             y="381.11218">streaming</tspan><tspan
             id="tspan4516"
             sodipodi:role="line"
             x="190"
             y="393.61218">http</tspan></text>
      </g>
    </g>
    <path
       sodipodi:nodetypes="cc"
       inkscape:connector-curvature="0"
       id="path4968"
       d="m 425,337.36218 c -125,120 -280,65 -340,150"
       style="fill:none;stroke:#000000;stroke-width:1px;stroke-linecap:butt;stroke-linejoin:miter;stroke-opacity:1;marker-end:url(#Arrow1Mend)" />
    <use
       x="0"
       y="0"
       xlink:href="#g4991"
       id="use5144"
       transform="translate(90.908627,117.67241)"
       width="744.09448"
       height="1052.3622" />
    <g
       transform="translate(135,-125)"
       id="g4484">
      <path
         sodipodi:type="arc"
         style="color:#000000;fill:#ffffff;stroke:#000000;stroke-width:0.86252284000000001;stroke-linecap:butt;stroke-linejoin:miter;stroke-miterlimit:4;stroke-opacity:1;stroke-dasharray:none;stroke-dashoffset:0;marker:none;visibility:visible;display:inline;overflow:visible;enable-background:accumulate;fill-opacity:1"
         id="path4486"
         sodipodi:cx="247.5"
         sodipodi:cy="477.36218"
         sodipodi:rx="22.5"
         sodipodi:ry="20"
         d="m 270,477.36218 c 0,11.0457 -10.07359,20 -22.5,20 -12.42641,0 -22.5,-8.9543 -22.5,-20 0,-11.04569 10.07359,-20 22.5,-20 12.42641,0 22.5,8.95431 22.5,20 z"
         transform="matrix(1.344184,0,0,1,-122.68554,-15)" />
      <text
         xml:space="preserve"
         style="font-size:10px;font-style:normal;font-weight:normal;text-align:center;line-height:125%;letter-spacing:0px;word-spacing:0px;text-anchor:middle;fill:#000000;fill-opacity:1;stroke:none;font-family:Sans"
         x="210.24414"
         y="465.12097"
         id="text4488"
         sodipodi:linespacing="125%"><tspan
           sodipodi:role="line"
           id="tspan4490"
           x="210.24414"
           y="465.12097">controller</tspan></text>
    </g>
    <g
       transform="matrix(-1,0,0,-1,646,618.72436)"
       id="use5118">
      <path
         sodipodi:nodetypes="cc"
         inkscape:connector-curvature="0"
         id="path5132"
         d="m 265,190.39789 0,16.96429"
         style="fill:none;stroke:#000000;stroke-width:1px;stroke-linecap:butt;stroke-linejoin:miter;stroke-opacity:1" />
      <path
         transform="translate(25,-70)"
         style="color:#000000;fill:#ffffff;fill-opacity:1;fill-rule:nonzero;stroke:#000000;stroke-width:0.99999994;stroke-linecap:butt;stroke-linejoin:miter;stroke-miterlimit:4;stroke-opacity:1;stroke-dashoffset:0;marker:none;visibility:visible;display:inline;overflow:visible;enable-background:accumulate"
         d="m 245,257.36218 c 0,2.76143 -2.23858,5 -5,5 -2.76142,0 -5,-2.23857 -5,-5"
         id="path5134"
         inkscape:connector-curvature="0"
         sodipodi:nodetypes="csc" />
    </g>
    <use
       x="0"
       y="0"
       xlink:href="#use5118"
       id="use5120"
       transform="translate(13.999993,0.0104174)"
       width="744.09448"
       height="1052.3622" />
    <use
       x="0"
       y="0"
       xlink:href="#use5120"
       id="use5122"
       transform="translate(13.999997,0)"
       width="744.09448"
       height="1052.3622" />
    <use
       x="0"
       y="0"
       xlink:href="#use5122"
       id="use5124"
       transform="translate(13.999999,0)"
       width="744.09448"
       height="1052.3622" />
    <use
       x="0"
       y="0"
       xlink:href="#use5124"
       id="use5126"
       transform="translate(13.999996,0)"
       width="744.09448"
       height="1052.3622" />
    <use
       x="0"
       y="0"
       xlink:href="#use5126"
       id="use5128"
       transform="translate(14.000015,-0.01041478)"
       width="744.09448"
       height="1052.3622" />
    <g
       id="g4610"
       transform="translate(16.428583,-10)">
      <path
         transform="matrix(1.7842415,0,0,1.0714286,-43.530943,-99.097299)"
         d="m 270,477.36218 a 22.5,20 0 1 1 -45,0 22.5,20 0 1 1 45,0 z"
         sodipodi:ry="20"
         sodipodi:rx="22.5"
         sodipodi:cy="477.36218"
         sodipodi:cx="247.5"
         id="path4494"
         style="color:#000000;fill:#ffffff;fill-opacity:1;stroke:#000000;stroke-width:0.72325516;stroke-linecap:butt;stroke-linejoin:miter;stroke-miterlimit:4;stroke-opacity:1;stroke-dasharray:none;stroke-dashoffset:0;marker:none;visibility:visible;display:inline;overflow:visible;enable-background:accumulate"
         sodipodi:type="arc" />
      <text
         sodipodi:linespacing="125%"
         id="text4496"
         y="408.87097"
         x="397.74414"
         style="font-size:10px;font-style:normal;font-weight:normal;text-align:center;line-height:125%;letter-spacing:0px;word-spacing:0px;text-anchor:middle;fill:#000000;fill-opacity:1;stroke:none;font-family:Sans"
         xml:space="preserve"><tspan
           y="408.87097"
           x="397.74414"
           id="tspan4498"
           sodipodi:role="line">clarinet JSON</tspan><tspan
           y="421.37097"
           x="397.74414"
           sodipodi:role="line"
           id="tspan4592">SAX parser</tspan></text>
    </g>
    <g
       id="g5165"
       transform="translate(-30.090344,-5.5644617)">
      <path
         transform="matrix(1.5595705,0,0,1.2947506,24.096645,-361.03334)"
         d="m 270,477.36218 c 0,11.0457 -10.07359,20 -22.5,20 -12.42641,0 -22.5,-8.9543 -22.5,-20 0,-11.04569 10.07359,-20 22.5,-20 12.42641,0 22.5,8.95431 22.5,20 z"
         sodipodi:ry="20"
         sodipodi:rx="22.5"
         sodipodi:cy="477.36218"
         sodipodi:cx="247.5"
         id="path4510"
         style="color:#000000;fill:none;stroke:#000000;stroke-width:0.7037273;stroke-linecap:butt;stroke-linejoin:miter;stroke-miterlimit:4;stroke-opacity:1;stroke-dasharray:none;stroke-dashoffset:0;marker:none;visibility:visible;display:inline;overflow:visible;enable-background:accumulate"
         sodipodi:type="arc" />
      <text
         sodipodi:linespacing="125%"
         id="text4512"
         y="247.29041"
         x="410.24414"
         style="font-size:10px;font-style:normal;font-weight:normal;text-align:center;line-height:125%;letter-spacing:0px;word-spacing:0px;text-anchor:middle;fill:#000000;fill-opacity:1;stroke:none;font-family:Sans"
         xml:space="preserve"><tspan
           y="247.29041"
           x="410.24414"
           id="tspan4514"
           sodipodi:role="line">compiled</tspan><tspan
           y="259.79041"
           x="410.24414"
           sodipodi:role="line"
           id="tspan5148">jsonPath</tspan><tspan
           y="272.29041"
           x="410.24414"
           sodipodi:role="line"
           id="tspan5150">expression</tspan></text>
    </g>
    <g
       id="g4900"
       transform="translate(-9.755859,-287.24121)">
      <g
         transform="translate(-4.7558605,9.9999957)"
         id="g4913">
        <path
           transform="matrix(1.1219618,0,0,0.75,-203.17382,411.58176)"
           d="m 270,477.36218 c 0,11.0457 -10.07359,20 -22.5,20 -12.42641,0 -22.5,-8.9543 -22.5,-20 0,-11.04569 10.07359,-20 22.5,-20 12.42641,0 22.5,8.95431 22.5,20 z"
           sodipodi:ry="20"
           sodipodi:rx="22.5"
           sodipodi:cy="477.36218"
           sodipodi:cx="247.5"
           id="path4891"
           style="color:#000000;fill:#ffffff;fill-opacity:1;stroke:#000000;stroke-width:1.0901351;stroke-linecap:butt;stroke-linejoin:miter;stroke-miterlimit:4;stroke-opacity:1;stroke-dasharray:none;stroke-dashoffset:0;marker:none;visibility:visible;display:inline;overflow:visible;enable-background:accumulate"
           sodipodi:type="arc" />
        <text
           sodipodi:linespacing="125%"
           id="text4893"
           y="772.36218"
           x="74.755859"
           style="font-size:10px;font-style:normal;font-weight:normal;text-align:center;line-height:125%;letter-spacing:0px;word-spacing:0px;text-anchor:middle;fill:#000000;fill-opacity:1;stroke:none;font-family:Sans"
           xml:space="preserve"><tspan
             y="772.36218"
             x="74.755859"
             id="tspan4895"
             sodipodi:role="line">callbacks</tspan></text>
      </g>
    </g>
    <g
       id="g4554"
       transform="translate(-20,-13.75)">
      <path
         transform="translate(-77.744141,-152.75879)"
         d="m 270,477.36218 a 22.5,20 0 1 1 -45,0 22.5,20 0 1 1 45,0 z"
         sodipodi:ry="20"
         sodipodi:rx="22.5"
         sodipodi:cy="477.36218"
         sodipodi:cx="247.5"
         id="path4530"
         style="color:#000000;fill:none;stroke:#000000;stroke-width:0.99999994;stroke-linecap:butt;stroke-linejoin:miter;stroke-miterlimit:4;stroke-opacity:1;stroke-dasharray:none;stroke-dashoffset:0;marker:none;visibility:visible;display:inline;overflow:visible;enable-background:accumulate"
         sodipodi:type="arc" />
      <text
         sodipodi:linespacing="125%"
         id="text4532"
         y="321.11218"
         x="170"
         style="font-size:10px;font-style:normal;font-weight:normal;text-align:center;line-height:125%;letter-spacing:0px;word-spacing:0px;text-anchor:middle;fill:#000000;fill-opacity:1;stroke:none;font-family:Sans"
         xml:space="preserve"><tspan
           y="321.11218"
           x="170"
           id="tspan4534"
           sodipodi:role="line">Node</tspan><tspan
           y="333.61218"
           x="170"
           sodipodi:role="line"
           id="tspan4536">http</tspan></text>
    </g>
    <flowRoot
       xml:space="preserve"
       style="font-size:10px;font-style:normal;font-weight:normal;text-align:center;line-height:125%;letter-spacing:0px;word-spacing:0px;text-anchor:middle;fill:#000000;fill-opacity:1;stroke:none;font-family:Sans"
       id="flowRoot4582"
       transform="translate(-0.49072266,10.019691)"><flowRegion
         id="flowRegion4584"><use
           x="0"
           y="0"
           xlink:href="#rect4560"
           id="use4586"
           width="744.09448"
           height="1052.3622" /></flowRegion><flowPara
         id="flowPara4588">Either a Browser XMLHttpRequest object, or a Node http object are created, depending on environment. </flowPara></flowRoot>    <path
       transform="translate(102.5,85)"
       d="m 270,477.36218 a 22.5,20 0 1 1 -45,0 22.5,20 0 1 1 45,0 z"
       sodipodi:ry="20"
       sodipodi:rx="22.5"
       sodipodi:cy="477.36218"
       sodipodi:cx="247.5"
       id="path4604"
       style="color:#000000;fill:none;stroke:#000000;stroke-width:0.99999994;stroke-linecap:butt;stroke-linejoin:miter;stroke-miterlimit:4;stroke-opacity:1;stroke-dasharray:none;stroke-dashoffset:0;marker:none;visibility:visible;display:inline;overflow:visible;enable-background:accumulate"
       sodipodi:type="arc" />
    <text
       sodipodi:linespacing="125%"
       id="text4606"
       y="565.12097"
       x="350.24414"
       style="font-size:10px;font-style:normal;font-weight:normal;text-align:center;line-height:125%;letter-spacing:0px;word-spacing:0px;text-anchor:middle;fill:#000000;fill-opacity:1;stroke:none;font-family:Sans"
       xml:space="preserve"><tspan
         y="565.12097"
         x="350.24414"
         id="tspan4608"
         sodipodi:role="line">ascent</tspan></text>
    <text
       xml:space="preserve"
       style="font-size:10px;font-style:normal;font-weight:normal;text-align:end;line-height:125%;letter-spacing:0px;word-spacing:0px;text-anchor:end;fill:#000000;fill-opacity:1;stroke:none;font-family:Sans"
       x="465"
       y="567.36218"
       id="text4671"
       sodipodi:linespacing="125%"><tspan
         sodipodi:role="line"
         id="tspan4673"
         x="465"
         y="567.36218">traces</tspan></text>
    <path
       style="fill:none;stroke:#000000;stroke-width:1px;stroke-linecap:butt;stroke-linejoin:miter;stroke-opacity:1;marker-end:url(#Arrow1Mend)"
       d="m 445,527.36218 c 5,30 -40,50 -70,45"
       id="path4665"
       inkscape:connector-curvature="0"
       sodipodi:nodetypes="cc" />
    <use
       x="0"
       y="0"
       xlink:href="#g4991"
       id="use5106"
       transform="translate(192.90864,268.65963)"
       width="744.09448"
       height="1052.3622" />
    <use
       x="0"
       y="0"
       xlink:href="#g4991"
       id="use5108"
       transform="translate(178.90863,268.65963)"
       width="744.09448"
       height="1052.3622" />
    <use
       x="0"
       y="0"
       xlink:href="#g4991"
       id="use5110"
       transform="translate(164.90862,268.65963)"
       width="744.09448"
       height="1052.3622" />
    <use
       x="0"
       y="0"
       xlink:href="#g4991"
       id="use5112"
       transform="translate(150.90863,268.65963)"
       width="744.09448"
       height="1052.3622" />
    <use
       x="0"
       y="0"
       xlink:href="#g4991"
       id="use5114"
       transform="translate(136.90863,268.65963)"
       width="744.09448"
       height="1052.3622" />
    <use
       x="0"
       y="0"
       xlink:href="#g4991"
       id="use5116"
       transform="translate(206.90863,268.65963)"
       width="744.09448"
       height="1052.3622" />
    <path
       transform="matrix(3.0000002,0,0,1.7129238,-322.50005,-316.06439)"
       d="m 270,477.36218 a 22.5,20 0 1 1 -45,0 22.5,20 0 1 1 45,0 z"
       sodipodi:ry="20"
       sodipodi:rx="22.5"
       sodipodi:cy="477.36218"
       sodipodi:cx="247.5"
       id="path4651"
       style="color:#000000;fill:#ffffff;stroke:#000000;stroke-width:0.44113377;stroke-linecap:butt;stroke-linejoin:miter;stroke-miterlimit:4;stroke-opacity:1;stroke-dasharray:none;stroke-dashoffset:0;marker:none;visibility:visible;display:inline;overflow:visible;enable-background:accumulate;fill-opacity:1;fill-rule:nonzero"
       sodipodi:type="arc" />
    <g
       id="g5140"
       transform="matrix(0.80566266,0.59237461,-0.59237461,0.80566266,369.06897,-185.50408)">
      <use
         inkscape:transform-center-y="1.0825295"
         inkscape:transform-center-x="-0.62500002"
         height="1052.3622"
         width="744.09448"
         transform="translate(205,280)"
         id="use5136"
         xlink:href="#g5004"
         y="0"
         x="0" />
      <use
         height="1052.3622"
         width="744.09448"
         transform="translate(15,0)"
         id="use5138"
         inkscape:transform-center-x="-2.1650632"
         xlink:href="#use5136"
         y="0"
         x="0" />
    </g>
    <g
       id="g4631"
       transform="translate(17.50001,8.3170764)">
      <path
         sodipodi:type="arc"
         style="color:#000000;fill:none;stroke:#000000;stroke-width:0.69679272;stroke-linecap:butt;stroke-linejoin:miter;stroke-miterlimit:4;stroke-opacity:1;stroke-dasharray:none;stroke-dashoffset:0;marker:none;visibility:visible;display:inline;overflow:visible;enable-background:accumulate"
         id="path4502"
         sodipodi:cx="247.5"
         sodipodi:cy="477.36218"
         sodipodi:rx="22.5"
         sodipodi:ry="20"
         d="m 270,477.36218 c 0,11.0457 -10.07359,20 -22.5,20 -12.42641,0 -22.5,-8.9543 -22.5,-20 0,-11.04569 10.07359,-20 22.5,-20 12.42641,0 22.5,8.95431 22.5,20 z"
         transform="matrix(1.7886284,0,0,1.1515229,-17.92968,-56.389887)" />
      <path
         transform="matrix(1.7886284,0,0,1.2129246,-17.92968,-85.700728)"
         d="m 270,477.36218 a 22.5,20 0 1 1 -45,0 22.5,20 0 1 1 45,0 z"
         sodipodi:ry="20"
         sodipodi:rx="22.5"
         sodipodi:cy="477.36218"
         sodipodi:cx="247.5"
         id="path4629"
         style="color:#000000;fill:#ffffff;fill-opacity:1;stroke:#000000;stroke-width:0.67892689;stroke-linecap:butt;stroke-linejoin:miter;stroke-miterlimit:4;stroke-opacity:1;stroke-dasharray:none;stroke-dashoffset:0;marker:none;visibility:visible;display:inline;overflow:visible;enable-background:accumulate"
         sodipodi:type="arc" />
      <text
         xml:space="preserve"
         style="font-size:10px;font-style:normal;font-weight:normal;text-align:center;line-height:125%;letter-spacing:0px;word-spacing:0px;text-anchor:middle;fill:#000000;fill-opacity:1;stroke:none;font-family:Sans"
         x="425"
         y="486.53162"
         id="text4504"
         sodipodi:linespacing="125%"><tspan
           sodipodi:role="line"
           id="tspan4506"
           x="425"
           y="486.53162">incremental</tspan><tspan
           sodipodi:role="line"
           x="425"
           y="499.03162"
           id="tspan4598">content</tspan><tspan
           sodipodi:role="line"
           x="425"
           y="511.53162"
           id="tspan4600">builder</tspan></text>
    </g>
    <text
       xml:space="preserve"
       style="font-size:10px;font-style:normal;font-weight:normal;text-align:center;line-height:125%;letter-spacing:0px;word-spacing:0px;text-anchor:middle;fill:#000000;fill-opacity:1;stroke:none;font-family:Sans"
       x="382.5"
       y="498.81061"
       id="text4643"
       sodipodi:linespacing="125%"><tspan
         sodipodi:role="line"
         x="382.5"
         y="498.81061"
         id="tspan4649">ascent</tspan><tspan
         sodipodi:role="line"
         x="382.5"
         y="511.31061"
         id="tspan4663">tracker</tspan></text>
    <path
       sodipodi:nodetypes="cc"
       inkscape:connector-curvature="0"
       id="path4918"
       d="m 215,492.36218 c -65,-20 -150,-75 -145,-150"
       style="fill:none;stroke:#000000;stroke-width:1px;stroke-linecap:butt;stroke-linejoin:miter;stroke-opacity:1;marker-end:url(#Arrow1Mend)" />
    <path
       style="fill:none;stroke:#000000;stroke-width:1px;stroke-linecap:butt;stroke-linejoin:miter;stroke-opacity:1;marker-end:url(#Arrow1Mend)"
       d="m 255,497.36218 c 20,-15 60,-20 100,-10"
       id="path4920"
       inkscape:connector-curvature="0"
       sodipodi:nodetypes="cc" />
    <path
       sodipodi:nodetypes="cc"
       inkscape:connector-curvature="0"
       id="path4922"
       d="m 250,487.36218 c 25,-40 71.42858,-65.35714 122.85715,-77.5"
       style="fill:none;stroke:#000000;stroke-width:1px;stroke-linecap:butt;stroke-linejoin:miter;stroke-opacity:1;marker-end:url(#Arrow1Mend)" />
    <path
       style="fill:none;stroke:#000000;stroke-width:1px;stroke-linecap:butt;stroke-linejoin:miter;stroke-opacity:1;marker-end:url(#Arrow1Mend)"
       d="m 235,477.36218 c 5,-45 40,-100 80,-130"
       id="path4924"
       inkscape:connector-curvature="0"
       sodipodi:nodetypes="cc" />
    <path
       sodipodi:nodetypes="cc"
       inkscape:connector-curvature="0"
       id="path4926"
       d="m 225,487.36218 c -35,-40 -30,-145 5,-180"
       style="fill:none;stroke:#000000;stroke-width:1px;stroke-linecap:butt;stroke-linejoin:miter;stroke-opacity:1;marker-end:url(#Arrow1Mend)" />
    <g
       id="g4447"
       transform="translate(25,35)">
      <path
         transform="translate(-37.5,-15)"
         d="m 270,477.36218 a 22.5,20 0 1 1 -45,0 22.5,20 0 1 1 45,0 z"
         sodipodi:ry="20"
         sodipodi:rx="22.5"
         sodipodi:cy="477.36218"
         sodipodi:cx="247.5"
         id="path3534"
         style="color:#000000;fill:#ffffff;stroke:#000000;stroke-width:0.99999994000000003;stroke-linecap:butt;stroke-linejoin:miter;stroke-miterlimit:4;stroke-opacity:1;stroke-dasharray:none;stroke-dashoffset:0;marker:none;visibility:visible;display:inline;overflow:visible;enable-background:accumulate;fill-opacity:1"
         sodipodi:type="arc" />
      <text
         sodipodi:linespacing="125%"
         id="text4410"
         y="465.12097"
         x="210.24414"
         style="font-size:10px;font-style:normal;font-weight:normal;text-align:center;line-height:125%;letter-spacing:0px;word-spacing:0px;text-anchor:middle;fill:#000000;fill-opacity:1;stroke:none;font-family:Sans"
         xml:space="preserve"><tspan
           y="465.12097"
           x="210.24414"
           id="tspan4412"
           sodipodi:role="line">wiring</tspan></text>
    </g>
    <path
       style="fill:none;stroke:#000000;stroke-width:1px;stroke-linecap:butt;stroke-linejoin:miter;stroke-opacity:1;marker-end:url(#Arrow1Mend)"
       d="m 185,562.36218 c 20,-10 35,-25 40,-45"
       id="path4928"
       inkscape:connector-curvature="0"
       sodipodi:nodetypes="cc" />
    <g
       transform="translate(-60.244141,97.241211)"
       id="g4452">
      <path
         sodipodi:type="arc"
         style="color:#000000;fill:#ffffff;fill-opacity:1;stroke:#000000;stroke-width:0.77459663;stroke-linecap:butt;stroke-linejoin:miter;stroke-miterlimit:4;stroke-opacity:1;stroke-dasharray:none;stroke-dashoffset:0;marker:none;visibility:visible;display:inline;overflow:visible;enable-background:accumulate"
         id="path4454"
         sodipodi:cx="247.5"
         sodipodi:cy="477.36218"
         sodipodi:rx="22.5"
         sodipodi:ry="20"
         d="m 270,477.36218 c 0,11.0457 -10.07359,20 -22.5,20 -12.42641,0 -22.5,-8.9543 -22.5,-20 0,-11.04569 10.07359,-20 22.5,-20 12.42641,0 22.5,8.95431 22.5,20 z"
         transform="matrix(1.6666667,0,0,1,-202.5,-15)" />
      <text
         xml:space="preserve"
         style="font-size:10px;font-style:normal;font-weight:normal;text-align:center;line-height:125%;letter-spacing:0px;word-spacing:0px;text-anchor:middle;fill:#000000;fill-opacity:1;stroke:none;font-family:Sans"
         x="210.24414"
         y="465.12097"
         id="text4456"
         sodipodi:linespacing="125%"><tspan
           sodipodi:role="line"
           id="tspan4458"
           x="210.24414"
           y="465.12097">browserAPI</tspan></text>
    </g>
    <g
       id="g5004"
       transform="translate(0,2.6171874e-6)">
      <path
         style="fill:none;stroke:#000000;stroke-width:1px;stroke-linecap:butt;stroke-linejoin:miter;stroke-opacity:1"
         d="m 265,190.39789 0,16.96429"
         id="path4997"
         inkscape:connector-curvature="0"
         sodipodi:nodetypes="cc" />
      <path
         sodipodi:nodetypes="csc"
         inkscape:connector-curvature="0"
         id="path4999"
         d="m 245,257.36218 c 0,2.76143 -2.23858,5 -5,5 -2.76142,0 -5,-2.23857 -5,-5"
         style="color:#000000;fill:#ffffff;fill-opacity:1;fill-rule:nonzero;stroke:#000000;stroke-width:0.99999994;stroke-linecap:butt;stroke-linejoin:miter;stroke-miterlimit:4;stroke-opacity:1;stroke-dashoffset:0;marker:none;visibility:visible;display:inline;overflow:visible;enable-background:accumulate"
         transform="translate(25,-70)" />
    </g>
    <use
       x="0"
       y="0"
       xlink:href="#g4991"
       id="use5172"
       transform="matrix(-1,0,0,-1,699.09137,542.05195)"
       width="744.09448"
       height="1052.3622" />
    <use
       x="0"
       y="0"
       xlink:href="#g4991"
       id="use5174"
       transform="matrix(-1,0,0,-1,713.09137,542.05196)"
       width="744.09448"
       height="1052.3622" />
    <g
       id="g5157"
       transform="translate(234.75586,-140)">
      <path
         transform="matrix(1.344184,0,0,1,-122.68554,-15)"
         d="m 270,477.36218 c 0,11.0457 -10.07359,20 -22.5,20 -12.42641,0 -22.5,-8.9543 -22.5,-20 0,-11.04569 10.07359,-20 22.5,-20 12.42641,0 22.5,8.95431 22.5,20 z"
         sodipodi:ry="20"
         sodipodi:rx="22.5"
         sodipodi:cy="477.36218"
         sodipodi:cx="247.5"
         id="path5159"
         style="color:#000000;fill:#ffffff;fill-opacity:1;stroke:#000000;stroke-width:0.86252284;stroke-linecap:butt;stroke-linejoin:miter;stroke-miterlimit:4;stroke-opacity:1;stroke-dasharray:none;stroke-dashoffset:0;marker:none;visibility:visible;display:inline;overflow:visible;enable-background:accumulate"
         sodipodi:type="arc" />
      <text
         sodipodi:linespacing="125%"
         id="text5161"
         y="465.12097"
         x="210.24414"
         style="font-size:10px;font-style:normal;font-weight:normal;text-align:center;line-height:125%;letter-spacing:0px;word-spacing:0px;text-anchor:middle;fill:#000000;fill-opacity:1;stroke:none;font-family:Sans"
         xml:space="preserve"><tspan
           y="465.12097"
           x="210.24414"
           id="tspan5163"
           sodipodi:role="line">???</tspan></text>
    </g>
    <text
       sodipodi:linespacing="125%"
       id="text5178"
       y="357.36218"
       x="110"
       style="font-size:10px;font-style:normal;font-weight:normal;text-align:end;line-height:125%;letter-spacing:0px;word-spacing:0px;text-anchor:end;fill:#000000;fill-opacity:1;stroke:none;font-family:Sans"
       xml:space="preserve"><tspan
         y="357.36218"
         x="110"
         id="tspan5180"
         sodipodi:role="line">creates</tspan></text>
    <text
       xml:space="preserve"
       style="font-size:10px;font-style:normal;font-weight:normal;text-align:end;line-height:125%;letter-spacing:0px;word-spacing:0px;text-anchor:end;fill:#000000;fill-opacity:1;stroke:none;font-family:Sans"
       x="260"
       y="322.36218"
       id="text5182"
       sodipodi:linespacing="125%"><tspan
         sodipodi:role="line"
         id="tspan5184"
         x="260"
         y="322.36218">creates</tspan></text>
    <text
       sodipodi:linespacing="125%"
       id="text5186"
       y="352.36218"
       x="305"
       style="font-size:10px;font-style:normal;font-weight:normal;text-align:end;line-height:125%;letter-spacing:0px;word-spacing:0px;text-anchor:end;fill:#000000;fill-opacity:1;stroke:none;font-family:Sans"
       xml:space="preserve"><tspan
         y="352.36218"
         x="305"
         id="tspan5188"
         sodipodi:role="line">creates</tspan></text>
    <text
       xml:space="preserve"
       style="font-size:10px;font-style:normal;font-weight:normal;text-align:end;line-height:125%;letter-spacing:0px;word-spacing:0px;text-anchor:end;fill:#000000;fill-opacity:1;stroke:none;font-family:Sans"
       x="355"
       y="437.36218"
       id="text5190"
       sodipodi:linespacing="125%"><tspan
         sodipodi:role="line"
         id="tspan5192"
         x="355"
         y="437.36218">creates</tspan></text>
    <text
       sodipodi:linespacing="125%"
       id="text5194"
       y="492.36218"
       x="335"
       style="font-size:10px;font-style:normal;font-weight:normal;text-align:end;line-height:125%;letter-spacing:0px;word-spacing:0px;text-anchor:end;fill:#000000;fill-opacity:1;stroke:none;font-family:Sans"
       xml:space="preserve"><tspan
         y="492.36218"
         x="335"
         id="tspan5196"
         sodipodi:role="line">creates</tspan></text>
  </g>
</svg>
